<svg id="Layer_1" data-name="Layer 1" xmlns="http://www.w3.org/2000/svg" viewBox="0 0 57 57"><defs><style>.cls-1{fill:#48b500;}.cls-2{fill:#fff;}</style></defs><title>seb-kundservice-outlines</title><circle class="cls-1" cx="28.5" cy="28.5" r="28.5"/><path class="cls-2" d="M14,17.28h1v4.3c.17-.25.4-.57.7-1l2.6-3.33h1.09L16.39,21l3.82,5.2H19.06l-3.33-4.5-.78,1v3.54H14Z"/><path class="cls-2" d="M26.1,26.24h-.83v-1a2,2,0,0,1-.8.86,2.21,2.21,0,0,1-1.14.3,2.1,2.1,0,0,1-1.59-.64A2.46,2.46,0,0,1,21.15,24V19.84h.9v4a1.93,1.93,0,0,0,.4,1.3,1.36,1.36,0,0,0,1.09.48,1.51,1.51,0,0,0,.87-.25,1.67,1.67,0,0,0,.59-.67,2.19,2.19,0,0,0,.21-1V19.84h.89Z"/><path class="cls-2" d="M27.94,19.84h.83v1a2.08,2.08,0,0,1,.8-.86,2.3,2.3,0,0,1,1.14-.29,2,2,0,0,1,1.58.64,2.41,2.41,0,0,1,.59,1.72v4.17H32v-4A2,2,0,0,0,31.58,21a1.34,1.34,0,0,0-1.08-.48,1.51,1.51,0,0,0-.87.25,1.69,1.69,0,0,0-.59.68,2.19,2.19,0,0,0-.21,1v3.86h-.89Z"/><path class="cls-2" d="M35.5,26a2.5,2.5,0,0,1-1-1.08,3.87,3.87,0,0,1-.35-1.75v-.26a3.87,3.87,0,0,1,.36-1.75,2.63,2.63,0,0,1,1-1.09,2.48,2.48,0,0,1,1.31-.36,2.27,2.27,0,0,1,1.23.34,2.38,2.38,0,0,1,.8.92V17.28h.89v9h-.82V25.07a2.19,2.19,0,0,1-2.08,1.3A2.47,2.47,0,0,1,35.5,26ZM38,25.31a2,2,0,0,0,.67-.87,3.35,3.35,0,0,0,.25-1.37V23a3.32,3.32,0,0,0-.25-1.37,2,2,0,0,0-.67-.87,1.73,1.73,0,0,0-1-.29,1.76,1.76,0,0,0-1,.29,2.09,2.09,0,0,0-.68.87A3.32,3.32,0,0,0,35.07,23v.06a3.35,3.35,0,0,0,.25,1.37,2.09,2.09,0,0,0,.68.87,1.76,1.76,0,0,0,1,.29A1.73,1.73,0,0,0,38,25.31Z"/><path class="cls-2" d="M41.16,22.66H44v.76H41.16Z"/><path class="cls-2" d="M10.47,37A2.72,2.72,0,0,1,9.4,35.72l.77-.32A1.86,1.86,0,0,0,12,36.64a1.83,1.83,0,0,0,1.09-.3,1,1,0,0,0,.41-.84.86.86,0,0,0-.35-.74,2.42,2.42,0,0,0-1-.37l-.82-.15c-1.21-.23-1.81-.78-1.81-1.65a1.78,1.78,0,0,1,.27-1,1.81,1.81,0,0,1,.79-.67,2.71,2.71,0,0,1,1.22-.25,3,3,0,0,1,1.46.36,2.63,2.63,0,0,1,1,1.06l-.76.32a1.78,1.78,0,0,0-.7-.76,1.93,1.93,0,0,0-1-.25,1.64,1.64,0,0,0-1,.3,1,1,0,0,0-.4.81.81.81,0,0,0,.31.67,2,2,0,0,0,.84.33l.81.15a3.38,3.38,0,0,1,1.49.59,1.4,1.4,0,0,1,.52,1.16,1.77,1.77,0,0,1-.29,1,1.85,1.85,0,0,1-.82.68,2.86,2.86,0,0,1-1.26.25A3.13,3.13,0,0,1,10.47,37Z"/><path class="cls-2" d="M19.71,37a2.88,2.88,0,0,1-1.57.44A2.84,2.84,0,0,1,16.67,37a2.77,2.77,0,0,1-1-1.15,4,4,0,0,1-.38-1.79V34a4,4,0,0,1,.38-1.78A2.75,2.75,0,0,1,19.51,31a2.77,2.77,0,0,1,1,1.14A4,4,0,0,1,20.91,34v.25H16.13a3.08,3.08,0,0,0,.26,1.3,1.86,1.86,0,0,0,1.78,1.15,1.91,1.91,0,0,0,1-.28,1.8,1.8,0,0,0,.7-.83l.86.17A2.73,2.73,0,0,1,19.71,37Zm.3-3.38a3,3,0,0,0-.31-1.22,2,2,0,0,0-.69-.77,1.79,1.79,0,0,0-1.86,0,2,2,0,0,0-.69.77,2.85,2.85,0,0,0-.3,1.22Z"/><path class="cls-2" d="M22.45,30.84h.83v1.54a2.49,2.49,0,0,1,.95-1.17,2.62,2.62,0,0,1,1.48-.43v.89a2.23,2.23,0,0,0-1.25.34,2.12,2.12,0,0,0-.82.93,2.92,2.92,0,0,0-.29,1.35v3h-.9Z"/><path class="cls-2" d="M26.59,30.84h1L29.08,35a11.58,11.58,0,0,1,.42,1.29c.09-.33.23-.76.43-1.29l1.49-4.16h.93l-2.43,6.4H29Z"/><path class="cls-2" d="M33.61,28.66h1v1h-1Zm0,2.18h.9v6.4h-.9Z"/><path class="cls-2" d="M37.38,37a2.61,2.61,0,0,1-1-1.12A3.81,3.81,0,0,1,36,34.1V34a3.83,3.83,0,0,1,.37-1.75,2.61,2.61,0,0,1,1-1.12,2.65,2.65,0,0,1,2.92.1,2.83,2.83,0,0,1,1,1.4l-.83.17a2,2,0,0,0-.68-1,1.67,1.67,0,0,0-1-.33,1.63,1.63,0,0,0-.94.29,2,2,0,0,0-.67.87A3.32,3.32,0,0,0,36.91,34v.06a3.35,3.35,0,0,0,.25,1.37,2,2,0,0,0,.67.87,1.63,1.63,0,0,0,.94.29,1.67,1.67,0,0,0,1-.33,2,2,0,0,0,.68-1l.83.17a2.75,2.75,0,0,1-1,1.4,2.48,2.48,0,0,1-1.53.49A2.56,2.56,0,0,1,37.38,37Z"/><path class="cls-2" d="M46.48,37a2.87,2.87,0,0,1-1.56.44A2.9,2.9,0,0,1,43.44,37a2.84,2.84,0,0,1-1-1.15A4,4,0,0,1,42,34.1V34a4,4,0,0,1,.37-1.78A2.76,2.76,0,0,1,46.29,31a2.77,2.77,0,0,1,1,1.14A4.1,4.1,0,0,1,47.68,34v.25H42.9a3.23,3.23,0,0,0,.27,1.3,2,2,0,0,0,.71.86,2,2,0,0,0,1.06.29,1.89,1.89,0,0,0,1-.28,1.82,1.82,0,0,0,.71-.83l.85.17A2.67,2.67,0,0,1,46.48,37Zm.3-3.38a3,3,0,0,0-.31-1.22,1.9,1.9,0,0,0-.68-.77,1.82,1.82,0,0,0-.94-.26,1.76,1.76,0,0,0-.93.26,2,2,0,0,0-.69.77,2.85,2.85,0,0,0-.3,1.22Z"/></svg>